<svg width="269" height="287" viewBox="0 0 269 287" fill="none" xmlns="http://www.w3.org/2000/svg">
<g clip-path="url(#clip0_355_2567)">
<path d="M163.1 285.852C166.619 276.714 151.5 274.381 138.5 276L179.5 239.5L127.5 236.5L124 285.852L163.1 285.852Z" fill="white" stroke="black" stroke-width="2" stroke-linecap="round"/>
<path d="M95.0146 132.15C92.6007 152.898 95.0146 197 104.015 219.5C113.015 242 141.915 271.659 141.915 271.659L141.915 285.749L190.015 285.749C190.197 277.972 189.724 276.126 181.915 278.659C181.915 278.659 184.969 273.817 184.969 260.159C184.969 246.5 169.915 242.659 169.915 242.659C184.969 239 185.68 233.204 190.015 225C199 208 205.5 187 205.5 162L229 118.5C234.921 112.303 240.153 97.9967 244.015 86.1494C252.015 70.1493 239.014 60.6494 235.515 68.1494C231.014 44.1494 220.955 42.7808 220.515 54.1495C220.333 58.8305 222.644 63.9204 221.915 68.1494C221.915 68.1494 217.189 62.1402 216.015 59.1494C214.841 56.1586 205.842 56.1493 209.515 61.1493C209.515 61.1493 212.969 66.9946 214.841 73.6494C215.538 76.1238 208.515 78.21 208.515 80.6493C208.515 86.0575 216.639 88.986 216.015 90.6493C215.187 99.1494 201 114.5 201 114.5C199.497 104.916 199.015 105.5 190.015 91.9999C186.741 76.1464 200.79 58.0025 197.014 39.4999C191.247 11.2423 147.112 8.8832 137.915 31.6587L127 54.1495L104.015 97.6495L98.515 108.149C95.6861 118.69 95.9819 123.835 95.0146 132.15Z" fill="white"/>
<path d="M201 114.5C199.497 104.916 199.015 105.5 190.015 91.9999C186.741 76.1464 200.79 58.0025 197.014 39.4999C191.247 11.2423 147.112 8.8832 137.915 31.6587L127 54.1495L104.015 97.6495L98.515 108.149C95.6861 118.69 95.9819 123.835 95.0146 132.15C92.6007 152.898 95.0146 197 104.015 219.5C113.015 242 141.915 271.659 141.915 271.659L141.915 285.749L190.015 285.749C190.197 277.972 189.724 276.126 181.915 278.659C181.915 278.659 184.969 273.817 184.969 260.159C184.969 246.5 169.915 242.659 169.915 242.659C184.969 239 185.68 233.204 190.015 225C199 208 205.5 187 205.5 162M201 114.5C204.083 124.298 207.5 147 205.5 162M201 114.5C201 114.5 215.187 99.1494 216.015 90.6493C216.639 88.986 208.515 86.0575 208.515 80.6493C208.515 78.21 215.538 76.1238 214.841 73.6494C212.969 66.9946 209.515 61.1493 209.515 61.1493C205.842 56.1493 214.841 56.1586 216.015 59.1494C217.189 62.1402 221.915 68.1494 221.915 68.1494C222.644 63.9204 220.333 58.8305 220.515 54.1495C220.955 42.7808 231.014 44.1494 235.515 68.1494C239.014 60.6494 252.015 70.1493 244.015 86.1494C240.153 97.9967 234.921 112.303 229 118.5L205.5 162" stroke="black" stroke-width="2" stroke-linecap="round"/>
<path d="M181.823 84.5972C182.751 81.7832 183.27 65.781 182.106 60.0612C181.062 54.931 196.207 55.04 190.346 42.51C184.484 29.98 179.645 38.205 174.035 37.8062C168.425 37.4074 150.385 32.6253 147.568 42.2117C143.573 55.8036 161.727 54.1665 160.965 60.0319C160.716 61.9573 161.446 75.7054 161.881 78.634C162.836 85.0719 164.885 91.8239 171.824 92.6922C175.842 93.1951 180.221 89.458 181.823 84.5972Z" stroke="black" stroke-width="2" stroke-linecap="round"/>
<path d="M182.448 70.8923C180.025 71.603 178.423 74.8672 168.933 73.3076" stroke="black" stroke-width="2" stroke-linecap="round"/>
<path d="M132.97 19.8276C141.741 6.12956 149.71 -1.44018 174.501 9.99998C187.001 15.7683 193.632 24.821 193.5 30C180.534 24.6612 144.182 26.7381 127.024 51.1434C127.024 51.1434 124.199 33.5256 132.97 19.8276Z" fill="#A2D992" stroke="black" stroke-width="2"/>
<path d="M255.437 49.9672L220.149 66.1979L217.031 60.3498L250.816 39.0305L255.437 49.9672Z" fill="white" stroke="black" stroke-width="2"/>
<path d="M17.3916 81.3213L86.094 95.7677" stroke="black" stroke-width="2"/>
<path d="M16.5459 71.2932L91.3796 87.0289" stroke="black" stroke-width="2"/>
<path d="M18.4961 62.0176L93.3298 77.7533" stroke="black" stroke-width="2"/>
<path d="M20.3145 53.3708L95.1482 69.1066" stroke="black" stroke-width="2"/>
<path d="M22.0996 44.8811L94.5751 60.121" stroke="black" stroke-width="2"/>
<path d="M34.1201 40.0212L88.5161 51.4594" stroke="black" stroke-width="2"/>
<path d="M12.7441 89.3726L87.5779 105.108" stroke="black" stroke-width="2"/>
<path d="M20.6807 99.25L74.9194 110.655" stroke="black" stroke-width="2"/>
<path d="M48.8223 38.0239L34.3758 106.726" stroke="black" stroke-width="2"/>
<path d="M58.8506 37.1772L43.1149 112.011" stroke="black" stroke-width="2"/>
<path d="M68.126 39.1277L52.3902 113.961" stroke="black" stroke-width="2"/>
<path d="M76.7725 40.9458L61.0367 115.78" stroke="black" stroke-width="2"/>
<path d="M84.376 46.947L70.0227 115.206" stroke="black" stroke-width="2"/>
<path d="M90.1221 54.752L78.6839 109.148" stroke="black" stroke-width="2"/>
<path d="M39.9268 37.3894L25.5084 105.958" stroke="black" stroke-width="2"/>
<path d="M30.8936 41.3127L19.4885 95.5514" stroke="black" stroke-width="2"/>
<path d="M123.425 93.9412L125.07 86.1162L132.281 87.6324L181.573 96.9482L179.928 104.773L130.635 95.4574L123.425 93.9412Z" fill="white"/>
<path d="M130.635 95.4574L179.928 104.773L181.573 96.9482L132.281 87.6324M130.635 95.4574L123.425 93.9412L125.07 86.1162L132.281 87.6324M130.635 95.4574L132.281 87.6324" stroke="black" stroke-width="2"/>
<path d="M178.023 104.242L179.854 95.5324L187.92 96.5274L185.808 106.57L178.023 104.242Z" fill="white" stroke="black" stroke-width="2"/>
<path fill-rule="evenodd" clip-rule="evenodd" d="M9.86124 65.235C15.0193 43.7266 38.2727 30.5861 59.9226 35.1384L63.2627 35.8407C74.2734 38.156 84.5207 44.9652 91.444 53.9262C93.7208 56.8733 95.6428 60.0639 97.1172 63.4129L124.549 86.6757L123.026 93.9215L90.5766 102.135C87.4178 105.454 83.6606 108.272 79.5454 110.512C69.9105 115.756 58.2342 117.896 47.5036 115.92L46.4678 115.716L43.1268 115.014C21.1329 110.389 4.97863 88.3838 9.62947 66.266L9.86124 65.235ZM100.149 74.298C100.561 77.7181 100.475 81.2038 99.8014 84.6841L99.6959 85.2048C99.0427 88.3116 97.9563 91.236 96.5136 93.956L115.227 90.1102L115.952 86.6602L115.707 86.469L100.149 74.298ZM16.7243 67.7579C12.8281 86.2871 26.6476 104.878 45.1771 108.775L47.1037 109.18L47.9756 109.352C57.0164 111.017 67.0358 109.251 75.3391 104.855C83.9104 100.318 90.654 92.9777 92.6021 83.7131L92.7698 82.8443C94.3465 73.8608 91.1459 64.7763 85.316 57.4087C79.4862 50.0415 71.0265 44.3895 62.0809 42.2723L61.2135 42.0789L59.2868 41.6738C41.0469 37.8384 21.2497 48.8748 16.9188 66.8946L16.7243 67.7579Z" fill="#D9D9D9"/>
<path d="M97.1172 63.4129C95.6428 60.0639 93.7208 56.8733 91.444 53.9262C84.5207 44.9652 74.2734 38.156 63.2627 35.8407L59.9226 35.1384C38.2727 30.5861 15.0193 43.7266 9.86124 65.235L9.62947 66.266C4.97863 88.3838 21.1329 110.389 43.1268 115.014L46.4678 115.716L47.5036 115.92C58.2342 117.896 69.9105 115.756 79.5454 110.512C83.6606 108.272 87.4178 105.454 90.5766 102.135M97.1172 63.4129L124.549 86.6757L123.026 93.9215L90.5766 102.135M97.1172 63.4129C98.0463 65.8476 99.9534 71.4332 100.149 74.298M90.5766 102.135C92.3202 100.874 95.2611 96.1568 96.5136 93.956M100.149 74.298C100.561 77.7181 100.475 81.2038 99.8014 84.6841L99.6959 85.2048C99.0427 88.3116 97.9563 91.236 96.5136 93.956M100.149 74.298L115.707 86.469L115.952 86.6602L115.227 90.1102L96.5136 93.956M16.7243 67.7579C12.8281 86.2871 26.6476 104.878 45.1771 108.775L47.1037 109.18L47.9756 109.352C57.0164 111.017 67.0358 109.251 75.3391 104.855C83.9104 100.318 90.654 92.9777 92.6021 83.7131L92.7698 82.8443C94.3465 73.8608 91.1459 64.7763 85.316 57.4087C79.4862 50.0415 71.0265 44.3895 62.0809 42.2723L61.2135 42.0789L59.2868 41.6738C41.0469 37.8384 21.2497 48.8748 16.9188 66.8946L16.7243 67.7579Z" stroke="black" stroke-width="2"/>
<path d="M180 102.822C178.524 112.913 143.889 182.689 135.075 176C121.331 165.571 106.975 149.314 94.9995 136.5C95 119 96.2969 112.663 101.622 102.822L135.075 129L149.294 104.883L146.8 95.4748C144.729 84.5504 152.526 87.0427 156.418 97.4586L161.914 87.6764C167.173 82.8958 173.238 93.5764 169.082 100.302C173.316 95.0745 178.931 82.3499 180 102.822Z" fill="white" stroke="black" stroke-width="2"/>
<path d="M254.211 38C258.474 38 261.711 41.0241 261.711 44.5C261.711 47.9759 258.474 51 254.211 51C249.948 51 246.711 47.9759 246.711 44.5C246.711 41.0241 249.948 38 254.211 38Z" fill="white" stroke="black" stroke-width="2"/>
<path d="M169.818 43.1227C169.944 49.1546 164.013 54.3379 156.572 54.6998C149.13 55.0617 142.995 50.4653 142.869 44.4333C142.869 44.4333 148.902 44.1399 156.343 43.778C163.785 43.4161 169.818 43.1227 169.818 43.1227Z" fill="black"/>
<path d="M196.767 41.8116C196.893 47.8436 190.962 53.0268 183.521 53.3888C176.079 53.7507 169.944 49.1542 169.818 43.1223C169.818 43.1223 175.851 42.8289 183.293 42.467C190.734 42.105 196.767 41.8116 196.767 41.8116Z" fill="black"/>
</g>
<defs>
<clipPath id="clip0_355_2567">
<rect width="269" height="286.7" fill="white"/>
</clipPath>
</defs>
</svg>
