<svg width="24" height="24" viewBox="0 0 24 24" fill="none" xmlns="http://www.w3.org/2000/svg">
<path d="M9.5 1.99997C10.1347 1.99987 10.7457 2.2412 11.209 2.67501C11.6724 3.10882 11.9534 3.70262 11.995 4.33597L12 4.49997V9.10497L17.442 9.70997C18.3855 9.81483 19.261 10.2518 19.9119 10.9429C20.5628 11.6339 20.9467 12.5339 20.995 13.482L21 13.685V14C21 16.0784 20.1911 18.0752 18.7445 19.5677C17.298 21.0601 15.3274 21.931 13.25 21.996L13 22H12.326C10.8885 21.9999 9.47751 21.6126 8.24148 20.8786C7.00546 20.1446 5.99004 19.0911 5.302 17.829L5.171 17.578L2.329 11.894C1.969 11.174 2.236 10.211 3.076 9.86597C4.119 9.43897 5.11 9.35897 6.131 9.87797C6.353 9.9913 6.571 10.1293 6.785 10.292L7 10.462V4.49997C7 3.83693 7.26339 3.20104 7.73223 2.7322C8.20107 2.26336 8.83696 1.99997 9.5 1.99997ZM9.5 3.99997C9.38297 3.99993 9.26964 4.04094 9.17974 4.11586C9.08984 4.19078 9.02906 4.29486 9.008 4.40997L9 4.49997V13C8.99984 13.207 8.93542 13.4089 8.81565 13.5777C8.69587 13.7466 8.52663 13.8741 8.3313 13.9427C8.13596 14.0113 7.92414 14.0176 7.72509 13.9607C7.52604 13.9037 7.34956 13.7865 7.22 13.625L6.888 13.218L6.585 12.864C6.005 12.207 5.584 11.844 5.225 11.661C5.01269 11.5466 4.77084 11.4989 4.531 11.524L4.39 11.544L6.96 16.684C7.43992 17.6435 8.16833 18.4567 9.06935 19.0391C9.97038 19.6214 11.0111 19.9515 12.083 19.995L12.326 20H13C14.5524 20 16.0444 19.3984 17.1625 18.3215C18.2806 17.2446 18.9378 15.7763 18.996 14.225L19 14V13.685C19.0001 13.2203 18.8383 12.77 18.5425 12.4116C18.2467 12.0532 17.8353 11.809 17.379 11.721L17.221 11.697L11.779 11.093C11.317 11.0417 10.8872 10.831 10.5637 10.4972C10.2401 10.1635 10.0429 9.72738 10.006 9.26397L10 9.10497V4.49997C10 4.36736 9.94732 4.24018 9.85355 4.14642C9.75979 4.05265 9.63261 3.99997 9.5 3.99997ZM4 5.99997C4.26522 5.99997 4.51957 6.10533 4.70711 6.29286C4.89464 6.4804 5 6.73475 5 6.99997C5 7.26519 4.89464 7.51954 4.70711 7.70708C4.51957 7.89461 4.26522 7.99997 4 7.99997H3C2.73478 7.99997 2.48043 7.89461 2.29289 7.70708C2.10536 7.51954 2 7.26519 2 6.99997C2 6.73475 2.10536 6.4804 2.29289 6.29286C2.48043 6.10533 2.73478 5.99997 3 5.99997H4ZM16 4.99997C16.2549 5.00025 16.5 5.09785 16.6854 5.27282C16.8707 5.44779 16.9822 5.68692 16.9972 5.94136C17.0121 6.19581 16.9293 6.44635 16.7657 6.6418C16.6021 6.83725 16.3701 6.96287 16.117 6.99297L16 6.99997H15C14.7451 6.99969 14.5 6.90209 14.3146 6.72712C14.1293 6.55215 14.0178 6.31302 14.0028 6.05857C13.9879 5.80413 14.0707 5.55359 14.2343 5.35814C14.3979 5.16268 14.6299 5.03707 14.883 5.00697L15 4.99997H16ZM4.707 1.29297L5.707 2.29297C5.88916 2.48157 5.98995 2.73417 5.98767 2.99637C5.9854 3.25857 5.88023 3.50938 5.69482 3.69479C5.50941 3.8802 5.2586 3.98537 4.9964 3.98764C4.7342 3.98992 4.4816 3.88913 4.293 3.70697L3.293 2.70697C3.11084 2.51837 3.01005 2.26577 3.01233 2.00357C3.0146 1.74137 3.11977 1.49056 3.30518 1.30515C3.49059 1.11974 3.7414 1.01457 4.0036 1.0123C4.2658 1.01002 4.5184 1.11081 4.707 1.29297ZM15.707 1.29297C15.8945 1.4805 15.9998 1.73481 15.9998 1.99997C15.9998 2.26513 15.8945 2.51944 15.707 2.70697L14.707 3.70697C14.6148 3.80248 14.5044 3.87866 14.3824 3.93107C14.2604 3.98348 14.1292 4.01107 13.9964 4.01222C13.8636 4.01337 13.7319 3.98807 13.609 3.93779C13.4861 3.88751 13.3745 3.81326 13.2806 3.71936C13.1867 3.62547 13.1125 3.51382 13.0622 3.39092C13.0119 3.26803 12.9866 3.13635 12.9877 3.00357C12.9889 2.87079 13.0165 2.73957 13.0689 2.61757C13.1213 2.49556 13.1975 2.38522 13.293 2.29297L14.293 1.29297C14.4805 1.1055 14.7348 1.00018 15 1.00018C15.2652 1.00018 15.5195 1.1055 15.707 1.29297Z" fill="black"/>
</svg>
